<svg width="16" height="20" viewBox="0 0 16 20" fill="none" xmlns="http://www.w3.org/2000/svg">
<path d="M9.66797 1.66667H3.86719C3.52531 1.66667 3.19743 1.84226 2.95568 2.15482C2.71394 2.46738 2.57813 2.89131 2.57812 3.33333V16.6667C2.57813 17.1087 2.71394 17.5326 2.95568 17.8452C3.19743 18.1577 3.52531 18.3333 3.86719 18.3333H11.6016C11.9434 18.3333 12.2713 18.1577 12.5131 17.8452C12.7548 17.5326 12.8906 17.1087 12.8906 16.6667V5.83333L9.66797 1.66667Z" stroke="#9333EA" stroke-width="2" stroke-linecap="round" stroke-linejoin="round"/>
<path d="M9.02344 1.66667V5C9.02344 5.44203 9.15925 5.86595 9.401 6.17851C9.64274 6.49107 9.97062 6.66667 10.3125 6.66667H12.8906" stroke="#9333EA" stroke-width="2" stroke-linecap="round" stroke-linejoin="round"/>
<path d="M6.44531 7.5H5.15625" stroke="#9333EA" stroke-width="2" stroke-linecap="round" stroke-linejoin="round"/>
<path d="M10.3125 10.8333H5.15625" stroke="#9333EA" stroke-width="2" stroke-linecap="round" stroke-linejoin="round"/>
<path d="M10.3125 14.1667H5.15625" stroke="#9333EA" stroke-width="2" stroke-linecap="round" stroke-linejoin="round"/>
</svg>
