<svg width="40" height="40" viewBox="0 0 40 40" fill="none" xmlns="http://www.w3.org/2000/svg">
<rect width="40" height="40" rx="20" fill="#181818"/>
<path d="M19.9652 25.4872H26.2077C26.4508 25.5008 26.6933 25.4519 26.9122 25.3452C27.131 25.2385 27.3189 25.0775 27.4578 24.8776C27.5968 24.6777 27.6823 24.4455 27.706 24.2032C27.7298 23.9609 27.6911 23.7165 27.5937 23.4934C27.2637 22.4961 25.9483 21.2998 25.9483 20.1228C25.9483 17.5103 25.9483 16.8228 24.6613 15.2865C24.2448 14.792 23.7284 14.3912 23.146 14.1104L22.4283 13.7621C22.3078 13.6894 22.2039 13.5923 22.1233 13.4771C22.0426 13.3618 21.9869 13.231 21.9598 13.0929C21.8881 12.6276 21.6421 12.207 21.2717 11.9165C20.9012 11.6259 20.4342 11.4871 19.9652 11.5282C19.5047 11.5005 19.0504 11.6455 18.691 11.9349C18.3317 12.2242 18.0931 12.6371 18.0219 13.0929C17.9895 13.2357 17.9262 13.3697 17.8364 13.4853C17.7466 13.601 17.6325 13.6954 17.5021 13.7621L16.7844 14.1104C16.2023 14.3913 15.6862 14.7921 15.27 15.2865C13.9839 16.8228 13.9839 17.5103 13.9839 20.1228C13.9839 21.2998 12.7281 22.376 12.3981 23.4329C12.1992 24.0718 12.0892 25.4872 13.7548 25.4872H19.9652Z" stroke="#B3B4B3" stroke-width="1.5" stroke-linecap="round" stroke-linejoin="round"/>
<path d="M22.9563 25.4872C22.9641 25.8821 22.8921 26.2746 22.7446 26.641C22.5971 27.0075 22.377 27.3404 22.0977 27.6197C21.8184 27.899 21.4855 28.1191 21.1191 28.2666C20.7526 28.4141 20.3602 28.4861 19.9652 28.4783C19.5702 28.4866 19.1775 28.415 18.8109 28.2676C18.4442 28.1203 18.1112 27.9002 17.8319 27.6208C17.5525 27.3413 17.3326 27.0083 17.1853 26.6416C17.0381 26.2749 16.9665 25.8822 16.975 25.4872" stroke="#B3B4B3" stroke-width="1.5" stroke-linecap="round" stroke-linejoin="round"/>
</svg>
