<svg width="20" height="20" viewBox="0 0 20 20" fill="none" xmlns="http://www.w3.org/2000/svg">
<path d="M16.6666 8.33333C16.6666 12.4942 12.0508 16.8275 10.5008 18.1658C10.3564 18.2744 10.1806 18.3331 9.99998 18.3331C9.81931 18.3331 9.64354 18.2744 9.49915 18.1658C7.94915 16.8275 3.33331 12.4942 3.33331 8.33333C3.33331 6.56522 4.03569 4.86953 5.28593 3.61929C6.53618 2.36905 8.23187 1.66667 9.99998 1.66667C11.7681 1.66667 13.4638 2.36905 14.714 3.61929C15.9643 4.86953 16.6666 6.56522 16.6666 8.33333Z" stroke="#7C3AED" stroke-width="2" stroke-linecap="round" stroke-linejoin="round"/>
<path d="M10 10.8333C11.3807 10.8333 12.5 9.71404 12.5 8.33333C12.5 6.95262 11.3807 5.83333 10 5.83333C8.61929 5.83333 7.5 6.95262 7.5 8.33333C7.5 9.71404 8.61929 10.8333 10 10.8333Z" stroke="#7C3AED" stroke-width="2" stroke-linecap="round" stroke-linejoin="round"/>
</svg>
