<svg width="25" height="25" viewBox="0 0 25 25" fill="none" xmlns="http://www.w3.org/2000/svg">
<path d="M21.7206 11.8516C21.4941 9.82368 20.5848 7.9331 19.1419 6.49026C17.6991 5.04741 15.8085 4.13807 13.7806 3.91156V2.85156C13.7806 2.30156 13.3306 1.85156 12.7806 1.85156C12.2306 1.85156 11.7806 2.30156 11.7806 2.85156V3.91156C9.75276 4.13807 7.86218 5.04741 6.41933 6.49026C4.97649 7.9331 4.06715 9.82368 3.84064 11.8516H2.78064C2.23064 11.8516 1.78064 12.3016 1.78064 12.8516C1.78064 13.4016 2.23064 13.8516 2.78064 13.8516H3.84064C4.06715 15.8794 4.97649 17.77 6.41933 19.2129C7.86218 20.6557 9.75276 21.5651 11.7806 21.7916V22.8516C11.7806 23.4016 12.2306 23.8516 12.7806 23.8516C13.3306 23.8516 13.7806 23.4016 13.7806 22.8516V21.7916C15.8085 21.5651 17.6991 20.6557 19.1419 19.2129C20.5848 17.77 21.4941 15.8794 21.7206 13.8516H22.7806C23.3306 13.8516 23.7806 13.4016 23.7806 12.8516C23.7806 12.3016 23.3306 11.8516 22.7806 11.8516H21.7206ZM12.7806 19.8516C8.91064 19.8516 5.78064 16.7216 5.78064 12.8516C5.78064 8.98156 8.91064 5.85156 12.7806 5.85156C16.6506 5.85156 19.7806 8.98156 19.7806 12.8516C19.7806 16.7216 16.6506 19.8516 12.7806 19.8516Z" fill="white"/>
</svg>
