<svg width="25" height="25" viewBox="0 0 25 25" fill="none" xmlns="http://www.w3.org/2000/svg">
<path d="M20.0986 14.3516H16.2236C15.71 14.351 15.2171 14.5542 14.853 14.9166C14.489 15.279 14.2835 15.7709 14.2816 16.2846V20.1596C14.2814 20.4147 14.3314 20.6673 14.4289 20.903C14.5264 21.1388 14.6695 21.353 14.8499 21.5334C15.0302 21.7137 15.2444 21.8568 15.4802 21.9543C15.7159 22.0518 15.9685 22.1018 16.2236 22.1016H20.0986C20.6121 22.0994 21.1038 21.8938 21.466 21.5298C21.8281 21.1658 22.0312 20.673 22.0306 20.1596V16.2846C22.0309 16.0308 21.9811 15.7794 21.8841 15.5449C21.7871 15.3104 21.6448 15.0973 21.4654 14.9178C21.2859 14.7384 21.0728 14.5961 20.8383 14.4991C20.6038 14.4021 20.3524 14.3523 20.0986 14.3526M9.33764 14.3516H5.46264C4.94923 14.3545 4.45785 14.5605 4.09584 14.9245C3.73383 15.2886 3.53063 15.7811 3.53064 16.2946V20.1696C3.53038 20.4234 3.58017 20.6747 3.67717 20.9092C3.77417 21.1437 3.91647 21.3568 4.09592 21.5363C4.27538 21.7157 4.48847 21.858 4.72299 21.955C4.9575 22.052 5.20885 22.1018 5.46264 22.1016H9.33764C9.85112 22.1021 10.3439 21.899 10.7079 21.5369C11.0719 21.1747 11.2775 20.683 11.2796 20.1696V16.2946C11.2799 16.0395 11.2299 15.7868 11.1324 15.5511C11.0348 15.3153 10.8918 15.1012 10.7114 14.9208C10.531 14.7404 10.3169 14.5974 10.0811 14.4999C9.84539 14.4024 9.59274 14.3523 9.33764 14.3526M9.33764 3.60156H5.46264C5.20885 3.6013 4.9575 3.65109 4.72299 3.74809C4.48847 3.84509 4.27538 3.98739 4.09592 4.16685C3.91647 4.3463 3.77417 4.55939 3.67717 4.79391C3.58017 5.02843 3.53038 5.27978 3.53064 5.53356V9.40856C3.53011 9.92205 3.73317 10.4148 4.09532 10.7788C4.45747 11.1428 4.94916 11.3484 5.46264 11.3506H9.33764C9.59274 11.3508 9.84539 11.3008 10.0811 11.2033C10.3169 11.1058 10.531 10.9627 10.7114 10.7824C10.8918 10.602 11.0348 10.3878 11.1324 10.152C11.2299 9.91631 11.2799 9.66366 11.2796 9.40856V5.53356C11.2775 5.02008 11.0719 4.52839 10.7079 4.16624C10.3439 3.80409 9.85112 3.60103 9.33764 3.60156ZM20.0986 3.60156H16.2236C15.7102 3.60103 15.2174 3.80409 14.8534 4.16624C14.4894 4.52839 14.2838 5.02008 14.2816 5.53356V9.40856C14.2819 9.92353 14.4866 10.4173 14.8507 10.7815C15.2149 11.1456 15.7087 11.3503 16.2236 11.3506H20.0986C20.6121 11.3484 21.1038 11.1428 21.466 10.7788C21.8281 10.4148 22.0312 9.92205 22.0306 9.40856V5.53356C22.0309 5.27978 21.9811 5.02843 21.8841 4.79391C21.7871 4.55939 21.6448 4.3463 21.4654 4.16685C21.2859 3.98739 21.0728 3.84509 20.8383 3.74809C20.6038 3.65109 20.3524 3.6013 20.0986 3.60156Z" stroke="#B3B4B3" stroke-width="1.5" stroke-linecap="round" stroke-linejoin="round"/>
</svg>
