<svg width="25" height="25" viewBox="0 0 25 25" fill="none" xmlns="http://www.w3.org/2000/svg">
<path d="M22.2963 11.4453L16.3488 9.28344L14.1869 3.33594C14.0803 3.04887 13.8885 2.80129 13.6371 2.62646C13.3857 2.45163 13.0868 2.35792 12.7806 2.35792C12.4744 2.35792 12.1756 2.45163 11.9242 2.62646C11.6728 2.80129 11.4809 3.04887 11.3744 3.33594L9.21251 9.28344L3.26501 11.4453C2.97794 11.5519 2.73036 11.7437 2.55553 11.9951C2.3807 12.2465 2.28699 12.5454 2.28699 12.8516C2.28699 13.1578 2.3807 13.4566 2.55553 13.708C2.73036 13.9594 2.97794 14.1513 3.26501 14.2578L9.21251 16.4206L11.3744 22.3672C11.4809 22.6543 11.6728 22.9018 11.9242 23.0767C12.1756 23.2515 12.4744 23.3452 12.7806 23.3452C13.0868 23.3452 13.3857 23.2515 13.6371 23.0767C13.8885 22.9018 14.0803 22.6543 14.1869 22.3672L16.3497 16.4197L22.2963 14.2578C22.5833 14.1513 22.8309 13.9594 23.0057 13.708C23.1806 13.4566 23.2743 13.1578 23.2743 12.8516C23.2743 12.5454 23.1806 12.2465 23.0057 11.9951C22.8309 11.7437 22.5833 11.5519 22.2963 11.4453ZM15.5069 15.1297C15.404 15.1671 15.3106 15.2267 15.2332 15.3041C15.1557 15.3815 15.0962 15.4749 15.0588 15.5778L12.7806 21.8422L10.5025 15.5778C10.465 15.4749 10.4055 15.3815 10.3281 15.3041C10.2507 15.2267 10.1573 15.1671 10.0544 15.1297L3.79001 12.8516L10.0544 10.5734C10.1573 10.536 10.2507 10.4765 10.3281 10.399C10.4055 10.3216 10.465 10.2282 10.5025 10.1253L12.7806 3.86094L15.0588 10.1253C15.0962 10.2282 15.1557 10.3216 15.2332 10.399C15.3106 10.4765 15.404 10.536 15.5069 10.5734L21.7713 12.8516L15.5069 15.1297Z" fill="#B3B4B3"/>
</svg>
