<svg width="25" height="25" viewBox="0 0 25 25" fill="none" xmlns="http://www.w3.org/2000/svg">
<path d="M5.50863 16.9886C3.96363 15.4426 3.19063 14.6706 2.90363 13.6676C2.61563 12.6646 2.86163 11.5996 3.35363 9.47056L3.63663 8.24256C4.04963 6.45056 4.25663 5.55456 4.86963 4.94056C5.48263 4.32656 6.37963 4.12056 8.17163 3.70756L9.39963 3.42356C11.5296 2.93256 12.5936 2.68656 13.5966 2.97356C14.5996 3.26156 15.3716 4.03456 16.9166 5.57956L18.7466 7.40956C21.4376 10.0996 22.7806 11.4436 22.7806 13.1136C22.7806 14.7846 21.4366 16.1286 18.7476 18.8176C16.0576 21.5076 14.7136 22.8516 13.0426 22.8516C11.3726 22.8516 10.0276 21.5076 7.33863 18.8186L5.50863 16.9886Z" stroke="#B3B4B3" stroke-width="1.5"/>
<path d="M10.8018 11.1448C11.5829 10.3637 11.5829 9.09739 10.8018 8.31635C10.0208 7.5353 8.75447 7.5353 7.97342 8.31635C7.19237 9.0974 7.19237 10.3637 7.97342 11.1448C8.75447 11.9258 10.0208 11.9258 10.8018 11.1448Z" stroke="#B3B4B3" stroke-width="1.5"/>
<path d="M12.3226 19.3516L19.3016 12.3716" stroke="#B3B4B3" stroke-width="1.5" stroke-linecap="round"/>
</svg>
