<svg width="25" height="25" viewBox="0 0 25 25" fill="none" xmlns="http://www.w3.org/2000/svg">
<path d="M5.78064 22.8516C5.51542 22.8516 5.26107 22.7462 5.07353 22.5587C4.886 22.3711 4.78064 22.1168 4.78064 21.8516V13.8516C4.78064 13.5863 4.886 13.332 5.07353 13.1445C5.26107 12.9569 5.51542 12.8516 5.78064 12.8516C6.04586 12.8516 6.30021 12.9569 6.48775 13.1445C6.67528 13.332 6.78064 13.5863 6.78064 13.8516V21.8516C6.78064 22.1168 6.67528 22.3711 6.48775 22.5587C6.30021 22.7462 6.04586 22.8516 5.78064 22.8516ZM10.7806 22.8516C10.5154 22.8516 10.2611 22.7462 10.0735 22.5587C9.886 22.3711 9.78064 22.1168 9.78064 21.8516V3.85156C9.78064 3.58635 9.886 3.33199 10.0735 3.14446C10.2611 2.95692 10.5154 2.85156 10.7806 2.85156C11.0459 2.85156 11.3002 2.95692 11.4877 3.14446C11.6753 3.33199 11.7806 3.58635 11.7806 3.85156V21.8516C11.7806 22.1168 11.6753 22.3711 11.4877 22.5587C11.3002 22.7462 11.0459 22.8516 10.7806 22.8516ZM15.7806 22.8516C15.5154 22.8516 15.2611 22.7462 15.0735 22.5587C14.886 22.3711 14.7806 22.1168 14.7806 21.8516V9.85156C14.7806 9.58635 14.886 9.33199 15.0735 9.14446C15.2611 8.95692 15.5154 8.85156 15.7806 8.85156C16.0459 8.85156 16.3002 8.95692 16.4877 9.14446C16.6753 9.33199 16.7806 9.58635 16.7806 9.85156V21.8516C16.7806 22.1168 16.6753 22.3711 16.4877 22.5587C16.3002 22.7462 16.0459 22.8516 15.7806 22.8516ZM20.7806 22.8516C20.5154 22.8516 20.2611 22.7462 20.0735 22.5587C19.886 22.3711 19.7806 22.1168 19.7806 21.8516V17.8516C19.7806 17.5863 19.886 17.332 20.0735 17.1445C20.2611 16.9569 20.5154 16.8516 20.7806 16.8516C21.0459 16.8516 21.3002 16.9569 21.4877 17.1445C21.6753 17.332 21.7806 17.5863 21.7806 17.8516V21.8516C21.7806 22.1168 21.6753 22.3711 21.4877 22.5587C21.3002 22.7462 21.0459 22.8516 20.7806 22.8516Z" fill="#B3B4B3"/>
</svg>
